<svg xmlns="http://www.w3.org/2000/svg" width="28.654" height="30.612" viewBox="0 0 28.654 30.612">
  <g id="Gruppe_2953" data-name="Gruppe 2953" transform="matrix(0.906, -0.423, 0.423, 0.906, 0, 7.604)">
    <path id="Pfad_3645" data-name="Pfad 3645" d="M16.706,6.086,10.148,5V2.437a2.454,2.454,0,0,0-4.907,0V8.544l-.572-.907A2.6,2.6,0,0,0,.761,7.362a2.551,2.551,0,0,0-.343,3.219l5.292,7.835A2.454,2.454,0,0,0,7.749,19.5h6.916A2.465,2.465,0,0,0,17.125,17.4l1.051-8.788A2.448,2.448,0,0,0,16.706,6.086ZM15.5,17.18a.844.844,0,0,1-.84.69H7.749a.815.815,0,0,1-.679-.36L1.787,9.693A.942.942,0,0,1,1.918,8.51a.955.955,0,0,1,.744-.275.935.935,0,0,1,.659.32L5.365,11.8a.657.657,0,0,0,.062.064.838.838,0,0,0,.114.12.783.783,0,0,0,.128.085.731.731,0,0,0,.3.1.754.754,0,0,0,.085.017c.021,0,.04-.011.061-.012a.811.811,0,0,0,.162-.032.861.861,0,0,0,.151-.056c.019-.011.041-.011.058-.023A.662.662,0,0,0,6.556,12a.737.737,0,0,0,.207-.24.7.7,0,0,0,.1-.3.735.735,0,0,0,.018-.086V2.437a.818.818,0,0,1,1.636,0v6.5a.818.818,0,0,0,1.635,0V6.642l5.989.973a.816.816,0,0,1,.415.806Z" transform="translate(1.302 6.499)" fill="#454d6b"/>
    <path id="Pfad_3646" data-name="Pfad 3646" d="M5.725,0A5.712,5.712,0,0,0,0,5.686a.818.818,0,0,0,1.636,0,4.089,4.089,0,0,1,8.178,0,.818.818,0,0,0,1.636,0A5.712,5.712,0,0,0,5.725,0Z" transform="translate(3.271 3.249)" fill="#454d6b"/>
    <path id="Pfad_3647" data-name="Pfad 3647" d="M1.635,8.935a7.361,7.361,0,0,1,14.722,0,.818.818,0,0,0,1.636,0A9,9,0,0,0,0,8.935a.818.818,0,0,0,1.635,0Z" transform="translate(0 0)" fill="#454d6b"/>
  </g>
</svg>
