<svg id="Gruppe_3007" data-name="Gruppe 3007" xmlns="http://www.w3.org/2000/svg" width="29.055" height="26.071" viewBox="0 0 29.055 26.071">
  <path id="Pfad_3692" data-name="Pfad 3692" d="M34.442,36.568a1.082,1.082,0,0,0-.082-.121A1.161,1.161,0,0,0,34.2,36.2a1.131,1.131,0,0,0-.261-.178.884.884,0,0,0-.1-.069h-.006a1.115,1.115,0,0,0-.871,0h-.007a.982.982,0,0,0-.1.069.811.811,0,0,0-.425.42,1.082,1.082,0,0,0-.082.121L26.116,51.459a1.139,1.139,0,1,0,2.1.889l2-4.785h6.355l2,4.785a1.139,1.139,0,1,0,2.1-.889Zm-3.268,8.7,2.219-5.307,2.22,5.307Z" transform="translate(-26.027 -26.979)" fill="#192244"/>
  <path id="Pfad_3693" data-name="Pfad 3693" d="M51.911,49.9l-9.1-22.183a1.081,1.081,0,0,0-.081-.123.8.8,0,0,0-.41-.419,1.009,1.009,0,0,0-.117-.081l-.007,0a1.106,1.106,0,0,0-.87,0l-.007,0a1,1,0,0,0-.108.075,1.139,1.139,0,0,0-.253.177,1.114,1.114,0,0,0-.163.246,1.009,1.009,0,0,0-.082.124L35.45,40.532l1.315,2.812h9.987L49.813,50.8a1.139,1.139,0,0,0,1.049.715,1.109,1.109,0,0,0,.442-.093A1.18,1.18,0,0,0,51.911,49.9ZM37.723,41.01l4.035-9.833,4.035,9.833Z" transform="translate(-22.946 -27)" fill="#192244"/>
</svg>
