<svg id="Gruppe_2949" data-name="Gruppe 2949" xmlns="http://www.w3.org/2000/svg" width="26.364" height="26.364" viewBox="0 0 26.364 26.364">
  <path id="Pfad_3625" data-name="Pfad 3625" d="M32.778,2.161H13a3.259,3.259,0,0,0-3.3,3.213V20.367A3.259,3.259,0,0,0,13,23.58h9.628l10.145,4.945V23.58a3.258,3.258,0,0,0,3.3-3.213V5.374A3.258,3.258,0,0,0,32.778,2.161Zm1.1,18.206a1.086,1.086,0,0,1-1.1,1.071h-2.2v3.622l-7.43-3.622H13a1.086,1.086,0,0,1-1.1-1.071V5.374A1.086,1.086,0,0,1,13,4.3H32.778a1.086,1.086,0,0,1,1.1,1.071Z" transform="translate(-9.709 -2.161)" fill="#192244"/>
  <path id="Pfad_3626" data-name="Pfad 3626" d="M22.1,6.061a4.115,4.115,0,0,0-4.394,4.094,1.1,1.1,0,0,0,2.2,0A1.93,1.93,0,0,1,22.1,8.2a1.937,1.937,0,0,1,2.2,1.953c0,1.194-.649,1.625-1.719,2.192-.7.371-1.575.834-1.576,1.839v.782a1.1,1.1,0,0,0,2.2,0v-.5c.121-.074.291-.164.428-.236A4.449,4.449,0,0,0,26.5,10.155,4.114,4.114,0,0,0,22.1,6.061Z" transform="translate(-8.921 -1.777)" fill="#192244"/>
  <ellipse id="Ellipse_442" data-name="Ellipse 442" cx="1.099" cy="1.071" rx="1.099" ry="1.071" transform="translate(12.084 14.993)" fill="#192244"/>
</svg>
