<svg id="Info_Icon" data-name="Info Icon" xmlns="http://www.w3.org/2000/svg" width="19.543" height="19.543" viewBox="0 0 19.543 19.543">
  <path id="Pfad_3669" data-name="Pfad 3669" d="M18.48,2.161a9.771,9.771,0,1,0,9.771,9.771A9.783,9.783,0,0,0,18.48,2.161Zm0,17.914a8.143,8.143,0,1,1,8.143-8.143A8.152,8.152,0,0,1,18.48,20.075Z" transform="translate(-8.709 -2.161)" fill="#aecd39"/>
  <path id="Pfad_3670" data-name="Pfad 3670" d="M20.523,11.161a.815.815,0,0,0-.814.814v5.7a.814.814,0,0,0,1.629,0v-5.7A.814.814,0,0,0,20.523,11.161Z" transform="translate(-10.752 -3.832)" fill="#aecd39"/>
  <circle id="Ellipse_446" data-name="Ellipse 446" cx="1" cy="1" r="1" transform="translate(8.752 4.765)" fill="#aecd39"/>
</svg>
