<svg xmlns="http://www.w3.org/2000/svg" width="168.803" height="32.097" viewBox="0 0 168.803 32.097">
  <g id="Logo" transform="translate(0.5 0.482)">
    <g id="Font" transform="translate(0 0.018)">
      <path id="Facharztcenter_Berlin" data-name="Facharztcenter Berlin" d="M1.246-2.2V-10H6.57v.681H2.046V-6.45H5.862v.637H2.046V-2.2Zm7.266.11a2.177,2.177,0,0,1-.783-.137A1.988,1.988,0,0,1,7.1-2.6a1.717,1.717,0,0,1-.417-.566,1.655,1.655,0,0,1-.149-.7,1.368,1.368,0,0,1,.183-.692,1.7,1.7,0,0,1,.514-.549,2.562,2.562,0,0,1,.788-.357,3.765,3.765,0,0,1,1.005-.126,5.7,5.7,0,0,1,.925.077,4.136,4.136,0,0,1,.834.22v-.517a1.625,1.625,0,0,0-.446-1.2,1.669,1.669,0,0,0-1.234-.445,2.713,2.713,0,0,0-.937.176A4.578,4.578,0,0,0,7.2-6.78l-.274-.495a4.125,4.125,0,0,1,2.239-.747,2.459,2.459,0,0,1,1.759.6,2.187,2.187,0,0,1,.64,1.67v2.583q0,.308.286.308V-2.2a1.922,1.922,0,0,1-.3.033.686.686,0,0,1-.463-.143.528.528,0,0,1-.177-.4l-.023-.451a2.685,2.685,0,0,1-1.034.791A3.288,3.288,0,0,1,8.512-2.087ZM8.7-2.659a2.777,2.777,0,0,0,1.114-.22,1.809,1.809,0,0,0,.771-.582.684.684,0,0,0,.154-.214.53.53,0,0,0,.051-.214v-.934a4.908,4.908,0,0,0-.805-.22,4.682,4.682,0,0,0-.851-.077,2.44,2.44,0,0,0-1.337.33,1,1,0,0,0-.514.868,1.148,1.148,0,0,0,.109.495,1.255,1.255,0,0,0,.3.4,1.4,1.4,0,0,0,.451.269A1.576,1.576,0,0,0,8.7-2.659ZM13-5.077a3.028,3.028,0,0,1,.217-1.143,2.841,2.841,0,0,1,.611-.94,2.86,2.86,0,0,1,.943-.632,3.092,3.092,0,0,1,1.211-.231,2.863,2.863,0,0,1,1.474.368,2.4,2.4,0,0,1,.948.995l-.754.231a1.776,1.776,0,0,0-.7-.687,2.046,2.046,0,0,0-1-.247,2.065,2.065,0,0,0-.851.176,2.17,2.17,0,0,0-.685.478,2.185,2.185,0,0,0-.457.72,2.452,2.452,0,0,0-.166.912,2.434,2.434,0,0,0,.171.912,2.313,2.313,0,0,0,.468.742,2.226,2.226,0,0,0,.691.495,1.985,1.985,0,0,0,.84.181,2.125,2.125,0,0,0,.566-.077,2.231,2.231,0,0,0,.52-.214,1.86,1.86,0,0,0,.411-.313,1.013,1.013,0,0,0,.24-.374l.765.22a1.863,1.863,0,0,1-.366.566,2.5,2.5,0,0,1-.566.451,2.834,2.834,0,0,1-.72.3,3.177,3.177,0,0,1-.817.1,3,3,0,0,1-1.2-.236,2.91,2.91,0,0,1-.948-.648,3,3,0,0,1-.623-.951A2.988,2.988,0,0,1,13-5.077ZM24.861-2.2h-.777V-5.4a2.5,2.5,0,0,0-.348-1.462,1.181,1.181,0,0,0-1.023-.484,1.8,1.8,0,0,0-.657.126,2.456,2.456,0,0,0-.611.346,2.418,2.418,0,0,0-.5.517,2.149,2.149,0,0,0-.314.648V-2.2h-.777V-10.22h.777v3.594a2.638,2.638,0,0,1,.983-1.022,2.613,2.613,0,0,1,1.36-.374,1.89,1.89,0,0,1,.868.181,1.587,1.587,0,0,1,.583.506,2.166,2.166,0,0,1,.331.78,4.576,4.576,0,0,1,.1,1.006Zm3.325.11a2.177,2.177,0,0,1-.783-.137,1.988,1.988,0,0,1-.628-.379,1.717,1.717,0,0,1-.417-.566,1.655,1.655,0,0,1-.149-.7,1.368,1.368,0,0,1,.183-.692,1.7,1.7,0,0,1,.514-.549,2.562,2.562,0,0,1,.788-.357A3.765,3.765,0,0,1,28.7-5.593a5.7,5.7,0,0,1,.925.077,4.136,4.136,0,0,1,.834.22v-.517a1.625,1.625,0,0,0-.446-1.2,1.669,1.669,0,0,0-1.234-.445,2.713,2.713,0,0,0-.937.176,4.578,4.578,0,0,0-.971.506L26.6-7.275a4.125,4.125,0,0,1,2.239-.747,2.459,2.459,0,0,1,1.759.6,2.187,2.187,0,0,1,.64,1.67v2.583q0,.308.286.308V-2.2a1.922,1.922,0,0,1-.3.033.686.686,0,0,1-.463-.143.528.528,0,0,1-.177-.4l-.023-.451a2.685,2.685,0,0,1-1.034.791A3.288,3.288,0,0,1,28.186-2.087Zm.183-.571a2.777,2.777,0,0,0,1.114-.22,1.809,1.809,0,0,0,.771-.582.685.685,0,0,0,.154-.214.53.53,0,0,0,.051-.214v-.934a4.909,4.909,0,0,0-.805-.22,4.682,4.682,0,0,0-.851-.077,2.44,2.44,0,0,0-1.337.33,1,1,0,0,0-.514.868,1.148,1.148,0,0,0,.109.495,1.255,1.255,0,0,0,.3.4,1.4,1.4,0,0,0,.451.269A1.576,1.576,0,0,0,28.369-2.659Zm7.689-4.6a2.511,2.511,0,0,0-1.371.418,2.113,2.113,0,0,0-.823,1.088V-2.2h-.777V-7.923h.731v1.374a2.631,2.631,0,0,1,.891-1.033,2.122,2.122,0,0,1,1.2-.374.813.813,0,0,1,.149.011ZM36.766-2.7l4.022-4.66h-3.93v-.56h4.776v.506l-4.01,4.66h4v.56H36.766Zm9.151.231q-.069.033-.2.088t-.3.11a3.657,3.657,0,0,1-.388.1,2.3,2.3,0,0,1-.457.044,1.722,1.722,0,0,1-.48-.066,1.134,1.134,0,0,1-.4-.2,1.006,1.006,0,0,1-.274-.346,1.081,1.081,0,0,1-.1-.484v-4.1H42.49v-.593h.823V-9.857h.777v1.934H45.46v.593H44.089v3.89a.586.586,0,0,0,.234.467.824.824,0,0,0,.486.148,1.51,1.51,0,0,0,.583-.1,2.612,2.612,0,0,0,.32-.148Zm.583-2.6a3.028,3.028,0,0,1,.217-1.143,2.841,2.841,0,0,1,.611-.94,2.859,2.859,0,0,1,.943-.632,3.092,3.092,0,0,1,1.211-.231,2.862,2.862,0,0,1,1.474.368,2.4,2.4,0,0,1,.948.995l-.754.231a1.776,1.776,0,0,0-.7-.687,2.046,2.046,0,0,0-1-.247,2.065,2.065,0,0,0-.851.176,2.169,2.169,0,0,0-.685.478,2.185,2.185,0,0,0-.457.72,2.452,2.452,0,0,0-.166.912,2.434,2.434,0,0,0,.171.912,2.313,2.313,0,0,0,.468.742,2.226,2.226,0,0,0,.691.495,1.985,1.985,0,0,0,.84.181,2.125,2.125,0,0,0,.566-.077,2.231,2.231,0,0,0,.52-.214,1.86,1.86,0,0,0,.411-.313,1.012,1.012,0,0,0,.24-.374l.765.22a1.863,1.863,0,0,1-.366.566,2.5,2.5,0,0,1-.566.451,2.834,2.834,0,0,1-.72.3,3.177,3.177,0,0,1-.817.1,3,3,0,0,1-1.2-.236,2.91,2.91,0,0,1-.948-.648,3,3,0,0,1-.623-.951A2.988,2.988,0,0,1,46.5-5.077Zm9.368,2.989a2.959,2.959,0,0,1-1.194-.236,2.926,2.926,0,0,1-.943-.648,3,3,0,0,1-.623-.951,2.988,2.988,0,0,1-.223-1.154,2.919,2.919,0,0,1,.223-1.137,2.932,2.932,0,0,1,.617-.934,2.93,2.93,0,0,1,.943-.637,2.971,2.971,0,0,1,1.188-.236,2.959,2.959,0,0,1,1.194.236,2.838,2.838,0,0,1,.931.643,2.983,2.983,0,0,1,.606.934A2.917,2.917,0,0,1,58.8-5.088v.176a.426.426,0,0,1-.011.121H53.7a2.336,2.336,0,0,0,.223.852,2.341,2.341,0,0,0,.486.676,2.181,2.181,0,0,0,.68.445,2.1,2.1,0,0,0,.817.159,2.188,2.188,0,0,0,.571-.077A2.361,2.361,0,0,0,57-2.945a1.947,1.947,0,0,0,.434-.324,1.391,1.391,0,0,0,.3-.423l.674.176a1.9,1.9,0,0,1-.388.577,2.7,2.7,0,0,1-.583.451,2.916,2.916,0,0,1-.731.3A3.288,3.288,0,0,1,55.868-2.087Zm2.194-3.275a2.242,2.242,0,0,0-.223-.841,2.291,2.291,0,0,0-.48-.654,2.131,2.131,0,0,0-.674-.429,2.169,2.169,0,0,0-.817-.154,2.213,2.213,0,0,0-.823.154,2.115,2.115,0,0,0-.68.429A2.106,2.106,0,0,0,53.9-6.2a2.419,2.419,0,0,0-.211.835ZM65.18-2.2H64.4V-5.4a2.7,2.7,0,0,0-.314-1.484,1.087,1.087,0,0,0-.965-.462,2.049,2.049,0,0,0-.685.121,2.338,2.338,0,0,0-.634.341,2.656,2.656,0,0,0-.52.522,2.015,2.015,0,0,0-.331.654V-2.2h-.777V-7.923h.708v1.3a2.744,2.744,0,0,1,1.045-1.011,2.954,2.954,0,0,1,1.48-.385,1.81,1.81,0,0,1,.834.176,1.4,1.4,0,0,1,.548.495,2.224,2.224,0,0,1,.3.78,5.274,5.274,0,0,1,.091,1.022Zm4.627-.275q-.069.033-.2.088t-.3.11a3.657,3.657,0,0,1-.388.1,2.3,2.3,0,0,1-.457.044,1.722,1.722,0,0,1-.48-.066,1.134,1.134,0,0,1-.4-.2,1.006,1.006,0,0,1-.274-.346,1.081,1.081,0,0,1-.1-.484v-4.1h-.823v-.593H67.2V-9.857h.777v1.934H69.35v.593H67.979v3.89a.586.586,0,0,0,.234.467.824.824,0,0,0,.486.148,1.51,1.51,0,0,0,.583-.1,2.613,2.613,0,0,0,.32-.148Zm3.565.385a2.959,2.959,0,0,1-1.194-.236,2.926,2.926,0,0,1-.943-.648,3,3,0,0,1-.623-.951,2.988,2.988,0,0,1-.223-1.154,2.919,2.919,0,0,1,.223-1.137,2.932,2.932,0,0,1,.617-.934,2.93,2.93,0,0,1,.943-.637,2.971,2.971,0,0,1,1.188-.236,2.959,2.959,0,0,1,1.194.236,2.838,2.838,0,0,1,.931.643,2.983,2.983,0,0,1,.606.934,2.917,2.917,0,0,1,.217,1.121v.176a.427.427,0,0,1-.011.121H71.2a2.337,2.337,0,0,0,.223.852,2.341,2.341,0,0,0,.486.676,2.181,2.181,0,0,0,.68.445,2.1,2.1,0,0,0,.817.159,2.188,2.188,0,0,0,.571-.077,2.361,2.361,0,0,0,.526-.209,1.947,1.947,0,0,0,.434-.324,1.39,1.39,0,0,0,.3-.423l.674.176a1.9,1.9,0,0,1-.388.577,2.7,2.7,0,0,1-.583.451,2.915,2.915,0,0,1-.731.3A3.289,3.289,0,0,1,73.371-2.087Zm2.194-3.275a2.243,2.243,0,0,0-.223-.841,2.292,2.292,0,0,0-.48-.654,2.131,2.131,0,0,0-.674-.429,2.169,2.169,0,0,0-.817-.154,2.213,2.213,0,0,0-.823.154,2.115,2.115,0,0,0-.68.429A2.106,2.106,0,0,0,71.4-6.2a2.419,2.419,0,0,0-.211.835Zm5.084-1.9a2.511,2.511,0,0,0-1.371.418,2.113,2.113,0,0,0-.823,1.088V-2.2h-.777V-7.923h.731v1.374A2.631,2.631,0,0,1,79.3-7.582a2.121,2.121,0,0,1,1.2-.374.813.813,0,0,1,.149.011ZM90.931-4.209a1.791,1.791,0,0,1-.183.808,2.045,2.045,0,0,1-.491.637,2.236,2.236,0,0,1-.72.418,2.573,2.573,0,0,1-.88.148H84.831V-10h3.907a1.652,1.652,0,0,1,.765.176,1.9,1.9,0,0,1,.583.456,2.07,2.07,0,0,1,.371.637,2.071,2.071,0,0,1,.131.72,1.988,1.988,0,0,1-.308,1.083,1.887,1.887,0,0,1-.857.731,2.029,2.029,0,0,1,1.1.736A2.025,2.025,0,0,1,90.931-4.209Zm-.8-.132a1.543,1.543,0,0,0-.1-.555,1.446,1.446,0,0,0-.291-.473,1.51,1.51,0,0,0-.446-.33,1.239,1.239,0,0,0-.554-.126H85.63v2.956h3.028a1.389,1.389,0,0,0,.577-.121,1.533,1.533,0,0,0,.468-.324,1.506,1.506,0,0,0,.314-.473A1.407,1.407,0,0,0,90.132-4.34ZM85.63-9.33V-6.45h2.788a1.286,1.286,0,0,0,.554-.121,1.407,1.407,0,0,0,.44-.319,1.462,1.462,0,0,0,.286-.456,1.457,1.457,0,0,0,.1-.544,1.609,1.609,0,0,0-.1-.56,1.357,1.357,0,0,0-.274-.456,1.366,1.366,0,0,0-.417-.308,1.2,1.2,0,0,0-.526-.115Zm9.391,7.242a2.959,2.959,0,0,1-1.194-.236,2.926,2.926,0,0,1-.943-.648,3,3,0,0,1-.623-.951,2.989,2.989,0,0,1-.223-1.154,2.92,2.92,0,0,1,.223-1.137,2.932,2.932,0,0,1,.617-.934,2.931,2.931,0,0,1,.943-.637,2.971,2.971,0,0,1,1.188-.236,2.959,2.959,0,0,1,1.194.236,2.838,2.838,0,0,1,.931.643,2.983,2.983,0,0,1,.606.934,2.917,2.917,0,0,1,.217,1.121v.176a.427.427,0,0,1-.011.121h-5.1a2.337,2.337,0,0,0,.223.852,2.342,2.342,0,0,0,.486.676,2.181,2.181,0,0,0,.68.445,2.1,2.1,0,0,0,.817.159,2.188,2.188,0,0,0,.571-.077,2.361,2.361,0,0,0,.526-.209,1.946,1.946,0,0,0,.434-.324,1.39,1.39,0,0,0,.3-.423l.674.176a1.9,1.9,0,0,1-.388.577,2.7,2.7,0,0,1-.583.451,2.916,2.916,0,0,1-.731.3A3.288,3.288,0,0,1,95.022-2.087Zm2.194-3.275a2.243,2.243,0,0,0-.223-.841,2.292,2.292,0,0,0-.48-.654,2.131,2.131,0,0,0-.674-.429,2.169,2.169,0,0,0-.817-.154,2.213,2.213,0,0,0-.823.154,2.115,2.115,0,0,0-.68.429,2.106,2.106,0,0,0-.468.659,2.419,2.419,0,0,0-.211.835Zm5.084-1.9a2.511,2.511,0,0,0-1.371.418,2.113,2.113,0,0,0-.823,1.088V-2.2h-.777V-7.923h.731v1.374a2.631,2.631,0,0,1,.891-1.033,2.122,2.122,0,0,1,1.2-.374.814.814,0,0,1,.149.011Zm1.245-2.956h.777v6.726a.673.673,0,0,0,.183.5.7.7,0,0,0,.514.181,1.6,1.6,0,0,0,.3-.033,2.022,2.022,0,0,0,.32-.088l.137.6a2.644,2.644,0,0,1-.531.143,3.215,3.215,0,0,1-.543.055,1.182,1.182,0,0,1-.845-.291,1.072,1.072,0,0,1-.308-.819ZM106.789-2.2V-7.923h.777V-2.2Zm0-6.924v-1.1h.777v1.1ZM114.455-2.2h-.777V-5.4a2.7,2.7,0,0,0-.314-1.484,1.087,1.087,0,0,0-.965-.462,2.049,2.049,0,0,0-.685.121,2.338,2.338,0,0,0-.634.341,2.655,2.655,0,0,0-.52.522,2.015,2.015,0,0,0-.331.654V-2.2h-.777V-7.923h.708v1.3A2.744,2.744,0,0,1,111.2-7.637a2.953,2.953,0,0,1,1.48-.385,1.81,1.81,0,0,1,.834.176,1.4,1.4,0,0,1,.548.495,2.225,2.225,0,0,1,.3.78,5.275,5.275,0,0,1,.091,1.022Z" transform="translate(-1.176 33.452)" fill="#777"/>
      <path id="Group" d="M61.721,22.436h-3.24V4.618H61.31V6.794a5.189,5.189,0,0,1,1.813-1.752A5.061,5.061,0,0,1,65.686,4.4a5.452,5.452,0,0,1,2.369.52,5.9,5.9,0,0,1,1.874,1.4A6.551,6.551,0,0,1,71.162,8.4a7.2,7.2,0,0,1,.447,2.526,8.007,8.007,0,0,1-.411,2.587,6.641,6.641,0,0,1-1.148,2.1,5.373,5.373,0,0,1-1.752,1.4,4.921,4.921,0,0,1-2.224.508,5.012,5.012,0,0,1-2.611-.665,4.749,4.749,0,0,1-1.741-1.8v7.373Zm3.07-15.28a3.06,3.06,0,0,0-.943.157,3.348,3.348,0,0,0-.895.448,3.919,3.919,0,0,0-.737.677,2.826,2.826,0,0,0-.5.846v2.973a4.324,4.324,0,0,0,1.33,1.8,3.053,3.053,0,0,0,1.934.713,2.927,2.927,0,0,0,1.341-.314,3.264,3.264,0,0,0,1.052-.846,4,4,0,0,0,.677-1.234,4.448,4.448,0,0,0,.242-1.45,4.112,4.112,0,0,0-.266-1.487,3.729,3.729,0,0,0-.737-1.2,3.461,3.461,0,0,0-1.112-.8A3.344,3.344,0,0,0,64.792,7.156ZM46.926,17.528a3.611,3.611,0,0,1-2.973-1.257,5.854,5.854,0,0,1-1.016-3.723V4.618h3.24v7.229c0,1.941.708,2.925,2.1,2.925A3.346,3.346,0,0,0,50.1,14.2a4.106,4.106,0,0,0,1.439-1.729V4.618h3.24v8.945a1.149,1.149,0,0,0,.181.726.8.8,0,0,0,.592.242v2.756a6.823,6.823,0,0,1-.81.121c-.209.016-.408.024-.592.024a2.347,2.347,0,0,1-1.414-.4,1.578,1.578,0,0,1-.641-1.1l-.073-1.015a5.421,5.421,0,0,1-2.176,1.958A6.575,6.575,0,0,1,46.926,17.528Zm-13.152,0A6.98,6.98,0,0,1,30.993,17,6.26,6.26,0,0,1,28.9,15.557a6.384,6.384,0,0,1-1.317-2.091,6.852,6.852,0,0,1-.459-2.49,6.927,6.927,0,0,1,.459-2.515A6.388,6.388,0,0,1,28.9,6.371a6.26,6.26,0,0,1,2.091-1.439,6.98,6.98,0,0,1,2.78-.532,6.891,6.891,0,0,1,2.768.532,6.287,6.287,0,0,1,2.08,1.439,6.388,6.388,0,0,1,1.317,2.09,6.927,6.927,0,0,1,.459,2.515,6.852,6.852,0,0,1-.459,2.49,6.479,6.479,0,0,1-1.306,2.091A6.124,6.124,0,0,1,36.554,17,6.988,6.988,0,0,1,33.773,17.528Zm0-10.372a3,3,0,0,0-1.306.29,3.3,3.3,0,0,0-1.051.8,3.733,3.733,0,0,0-.7,1.209,4.736,4.736,0,0,0,0,3.058,3.749,3.749,0,0,0,.7,1.2,3.136,3.136,0,0,0,1.051.786,3.206,3.206,0,0,0,2.611,0,3.131,3.131,0,0,0,1.052-.786,3.739,3.739,0,0,0,.7-1.208,4.545,4.545,0,0,0,.254-1.547,4.471,4.471,0,0,0-.254-1.523,3.739,3.739,0,0,0-.7-1.208,3.131,3.131,0,0,0-1.052-.786A3.091,3.091,0,0,0,33.773,7.156ZM8.147,17.407a7.611,7.611,0,0,1-3.179-.677,8.068,8.068,0,0,1-2.587-1.861A8.955,8.955,0,0,1,.64,12.076,9.329,9.329,0,0,1,0,8.607,8.713,8.713,0,0,1,2.405,2.551,8.505,8.505,0,0,1,5.052.69,7.98,7.98,0,0,1,8.364,0a8.083,8.083,0,0,1,4.147,1.016,6.6,6.6,0,0,1,2.6,2.732L12.62,5.585a4.635,4.635,0,0,0-1.826-1.958,5.029,5.029,0,0,0-2.55-.677,4.373,4.373,0,0,0-2,.459A4.7,4.7,0,0,0,4.7,4.666,5.953,5.953,0,0,0,3.711,6.5,6.883,6.883,0,0,0,3.36,8.7a6.525,6.525,0,0,0,.387,2.26A5.813,5.813,0,0,0,4.81,12.79a5.007,5.007,0,0,0,1.608,1.22,4.61,4.61,0,0,0,2.019.448,5.875,5.875,0,0,0,4.5-2.345V10.9H9.477V8.462H15.69v8.825H12.934V15.352A6.592,6.592,0,0,1,8.147,17.407Zm13.8-.121h-3.24V4.618h2.973V7.326a5.814,5.814,0,0,1,.8-1.172,6.175,6.175,0,0,1,.992-.907,4.62,4.62,0,0,1,1.075-.593A3,3,0,0,1,25.6,4.449H26a1.309,1.309,0,0,1,.254.024V7.422a6.43,6.43,0,0,0-2.635.568,3.337,3.337,0,0,0-1.668,1.632v7.663Z" transform="translate(57.902 0.363)" fill="#192244" stroke="rgba(0,0,0,0)" stroke-miterlimit="10" stroke-width="1"/>
      <path id="Medi" d="M41.124,17.891a5.784,5.784,0,0,1-2.418-.507,5.724,5.724,0,0,1-1.91-1.4,6.58,6.58,0,0,1-1.245-2.091,7.333,7.333,0,0,1-.448-2.575,7.6,7.6,0,0,1,.423-2.562A6.753,6.753,0,0,1,36.7,6.673a5.434,5.434,0,0,1,1.789-1.4,5.135,5.135,0,0,1,2.272-.507,4.823,4.823,0,0,1,2.527.676A4.936,4.936,0,0,1,45.04,7.2V0h3.24V13.925a1.2,1.2,0,0,0,.169.726.755.755,0,0,0,.58.242v2.756a7.376,7.376,0,0,1-1.377.17,2.259,2.259,0,0,1-1.427-.435,1.606,1.606,0,0,1-.628-1.136l-.073-.8a4.621,4.621,0,0,1-1.9,1.826A5.423,5.423,0,0,1,41.124,17.891Zm.653-10.371a2.929,2.929,0,0,0-1.342.314,3.2,3.2,0,0,0-1.051.859,4.123,4.123,0,0,0-.677,1.245,4.426,4.426,0,0,0-.242,1.45,4.012,4.012,0,0,0,.266,1.475,3.861,3.861,0,0,0,.725,1.185,3.318,3.318,0,0,0,1.1.8,3.4,3.4,0,0,0,1.414.29,3.058,3.058,0,0,0,.942-.157,3.322,3.322,0,0,0,.895-.447,3.921,3.921,0,0,0,.737-.677,2.828,2.828,0,0,0,.5-.846V9.985a3.55,3.55,0,0,0-.544-.979,4.039,4.039,0,0,0-.8-.774,4.169,4.169,0,0,0-.942-.52A2.694,2.694,0,0,0,41.776,7.519ZM26.787,17.891a7.063,7.063,0,0,1-2.757-.52,6.215,6.215,0,0,1-3.445-3.493,6.7,6.7,0,0,1-.472-2.491,7.092,7.092,0,0,1,.459-2.551,6.257,6.257,0,0,1,1.33-2.1,6.38,6.38,0,0,1,2.116-1.439,7.069,7.069,0,0,1,2.792-.531,6.892,6.892,0,0,1,2.768.531,6.4,6.4,0,0,1,2.08,1.427A6.1,6.1,0,0,1,32.964,8.8a6.964,6.964,0,0,1,.447,2.466c0,.2,0,.4-.012.6a2.461,2.461,0,0,1-.061.484H23.547a3.79,3.79,0,0,0,.363,1.33A3.253,3.253,0,0,0,25.7,15.3a3.434,3.434,0,0,0,1.208.218,3.757,3.757,0,0,0,1.825-.471A2.507,2.507,0,0,0,29.905,13.8l2.78.773a5.669,5.669,0,0,1-2.236,2.382A6.965,6.965,0,0,1,26.787,17.891ZM26.763,7.108a3.237,3.237,0,0,0-1.221.229,3.2,3.2,0,0,0-1,.641,3.319,3.319,0,0,0-.713.991,3.491,3.491,0,0,0-.326,1.281h6.575a3.384,3.384,0,0,0-1.051-2.285A3.232,3.232,0,0,0,26.763,7.108ZM3.336,17.65H0V.484H3.578l5.077,9.767L13.78.484h3.554V17.648H14V6.287L9.574,14.748H7.76L3.336,6.287V17.649Zm51.858,0h-3.24V4.981h3.24V17.648Zm0-14.433h-3.24V0h3.24V3.215Z" transform="translate(0 0)" fill="#2ea9d1" stroke="rgba(0,0,0,0)" stroke-miterlimit="10" stroke-width="1"/>
    </g>
    <g id="Icon" transform="translate(135.61 0)">
      <g id="Bildmarke" transform="translate(0)">
        <path id="Pfad_3619" data-name="Pfad 3619" d="M7.5,0H15.54S16.075,15,7.5,15H0V7.5A7.5,7.5,0,0,1,7.5,0Z" transform="translate(0 16.611)" fill="#192244"/>
        <path id="Pfad_3620" data-name="Pfad 3620" d="M8.044,0H.007S-.529,15,8.044,15h7.5V7.5A7.5,7.5,0,0,0,8.044,0Z" transform="translate(17.147 16.611)" fill="#192244"/>
        <path id="Pfad_3621" data-name="Pfad 3621" d="M7.5,0H15.54S16.075,15,7.5,15H0V7.5A7.5,7.5,0,0,1,7.5,0Z" transform="translate(32.693 15.004) rotate(180)" fill="#192244"/>
        <path id="Pfad_3622" data-name="Pfad 3622" d="M8.044,0H.007S-.529,15,8.044,15h7.5V7.5A7.5,7.5,0,0,0,8.044,0Z" transform="translate(15.546 15.004) rotate(180)" fill="#aecd39"/>
      </g>
    </g>
  </g>
</svg>
